<?xml version="1.0" encoding="utf-8"?>
<!-- Generator: Adobe Illustrator 24.1.3, SVG Export Plug-In . SVG Version: 6.00 Build 0)  -->
<svg version="1.1" id="Layer_1" xmlns="http://www.w3.org/2000/svg" xmlns:xlink="http://www.w3.org/1999/xlink" x="0px" y="0px"
	 viewBox="0 0 595.28 594" style="enable-background:new 0 0 595.28 594;" xml:space="preserve">
<style type="text/css">
	.st0{display:none;}
	.st1{fill:#258C43;}
	.st2{fill:none;stroke:#FFFFFF;stroke-width:26;stroke-linecap:round;stroke-linejoin:round;stroke-miterlimit:10;}
	.st3{fill:#387F3D;}
	.st4{fill:#397F3D;}
	.st5{fill:#278D44;}
	.st6{fill:#2B8942;}
</style>
<g>
	<g>
		<path class="st1" d="M292.41,194.2c0-19.49,0.33-39-0.07-58.49c-0.89-43.63-27-74.16-67.1-79.01
			c-38.06-4.61-76.18,21.69-84.13,61.67c-2.99,15.04-8.33,18.9-22.23,21.76c-37.43,7.72-64.08,43.77-61.55,79.8
			c2.74,39.21,31.91,68.92,73.34,70.68c42.98,1.85,86.1,0.96,129.14,0.61c21.55-0.16,32.78-11.39,32.4-33.64
			c-0.35-21.13-0.07-42.25-0.07-63.38H292.41z M292.37,342.19c-0.65-25.29-10.01-35.68-35.37-36.08
			c-41.41-0.65-82.87-0.96-124.25,0.28c-41.25,1.22-71.54,30.06-75.24,68.99c-3.53,37.41,22.62,73.32,61.55,82
			c13.17,2.95,19.51,6.06,22.01,21.69c6.08,37.92,43.94,64.88,81.6,61.95c39.54-3.09,67.19-32.59,68.9-74.58
			c0.84-20.28,0.16-40.61,0.16-60.9h0.7c0-10.57,0.02-21.13,0-31.68C292.44,363.32,292.62,352.75,292.37,342.19z M479.67,139.97
			c-13.9-2.6-17.69-7.84-20.7-20.52c-9.83-41.2-45.08-66.86-83.31-62.72c-40.66,4.4-67.38,35.58-68.57,80.67
			c-0.51,19.49-0.09,39-0.09,58.51h-0.16c0,20.31,0.05,40.61-0.02,60.92c-0.05,21.64,10.74,34.11,32.24,34.37
			c43.87,0.51,87.83,1.52,131.55-0.91c42.39-2.39,69.98-31.96,71.99-71.71C544.43,182.26,517.67,147.01,479.67,139.97z
			 M541.95,377.17c-2.85-38.63-30.95-68.67-70.63-70.56c-43.73-2.08-87.64-0.98-131.46-0.44c-22.93,0.28-33.2,13.52-32.82,36.12
			c0.35,21.9,0.07,43.82,0.07,65.74h-0.09c0,4.87,0.05,9.73-0.02,14.6c-0.19,13.99-0.56,27.93-1.33,41.76
			c0-0.02,0.02-0.05,0.02-0.07c0.73,8.42,3.3,24.78,14.32,41.48c7.84,11.91,17.01,19.49,23.26,23.86
			c47.94,27.42,103.27,3.23,115.46-50.84c3.32-14.79,9.19-18.62,22.76-21.5C518.95,449.39,544.69,413.88,541.95,377.17z"/>
		<path class="st1" d="M481.47,457.32c-13.57,2.88-19.44,6.71-22.76,21.5c-12.19,54.07-67.52,78.26-115.46,50.84
			c-6.25-4.37-15.42-11.96-23.26-23.86c-11.02-16.7-13.59-33.06-14.32-41.48c0,0.02-0.02,0.05-0.02,0.07
			c0.77-13.83,1.15-27.77,1.33-41.76c0.07-4.87,0.02-9.73,0.02-14.6h0.09c0-21.92,0.28-43.84-0.07-65.74
			c-0.37-22.6,9.9-35.84,32.82-36.12c43.82-0.54,87.73-1.64,131.46,0.44c39.68,1.9,67.78,31.93,70.63,70.56
			C544.69,413.88,518.95,449.39,481.47,457.32z"/>
		<path class="st1" d="M307,195.89c0-19.5-0.43-39.01,0.09-58.5c1.19-45.09,27.92-76.26,68.57-80.66
			c38.23-4.14,73.49,21.53,83.3,62.71c3.02,12.68,6.81,17.92,20.72,20.51c38,7.06,64.75,42.31,62.92,78.62
			c-2.01,39.75-29.61,69.33-71.99,71.7c-43.73,2.44-87.69,1.44-131.54,0.92c-21.5-0.25-32.3-12.72-32.24-34.37
			c0.06-20.31,0.01-40.62,0.01-60.93C306.88,195.89,306.94,195.89,307,195.89z"/>
		<path class="st1" d="M291.73,405.54c0,20.3,0.69,40.63-0.14,60.89c-1.72,42-29.38,71.5-68.91,74.58
			c-37.67,2.94-75.53-24.02-81.6-61.95c-2.5-15.62-8.85-18.73-22.02-21.67c-38.94-8.69-65.09-44.6-61.55-82
			c3.68-38.93,34-67.78,75.24-69.01c41.39-1.23,82.84-0.93,124.25-0.27c25.36,0.41,34.71,10.78,35.36,36.08
			c0.27,10.55,0.07,21.12,0.08,31.67c0.01,10.56,0,21.12,0,31.67C292.2,405.54,291.97,405.54,291.73,405.54z"/>
		<path class="st1" d="M292.15,194.2c0,21.12-0.28,42.25,0.08,63.37c0.37,22.26-10.86,33.49-32.4,33.66
			c-43.05,0.35-86.16,1.22-129.14-0.61c-41.43-1.76-70.62-31.48-73.35-70.69c-2.52-36.03,24.14-72.09,61.57-79.8
			c13.88-2.86,19.21-6.71,22.21-21.76c7.96-39.98,46.07-66.27,84.15-61.67c40.09,4.85,66.2,35.39,67.1,79.01
			c0.4,19.49,0.07,39,0.07,58.49C292.33,194.2,292.24,194.2,292.15,194.2z"/>
	</g>
</g>
<line class="st2" x1="402.29" y1="136.79" x2="402.29" y2="230.5"/>
<line class="st2" x1="357.12" y1="183.64" x2="449.39" y2="183.64"/>
<path class="st2" d="M410.32,332.85c0.42,3.21,5.44,47.41-27.99,75.31c-22.22,18.55-47.85,18.56-54.96,18.32"/>
<path class="st2" d="M253.45,426.49c-3.24,0.15-47.7,1.49-72.73-34.14c-16.65-23.68-14.53-49.22-13.7-56.29"/>
<path class="st2" d="M166.53,271.76c-0.2-3.24-2.15-47.67,33.12-73.2c23.45-16.97,49.01-15.21,56.09-14.48"/>
</svg>
