<?xml version="1.0" encoding="utf-8"?>
<!-- Generator: Adobe Illustrator 24.1.3, SVG Export Plug-In . SVG Version: 6.00 Build 0)  -->
<svg version="1.1" id="Layer_1" xmlns="http://www.w3.org/2000/svg" xmlns:xlink="http://www.w3.org/1999/xlink" x="0px" y="0px"
	 viewBox="0 0 595.28 594" style="enable-background:new 0 0 595.28 594;" xml:space="preserve">
<style type="text/css">
	.st0{fill:#778EAD;}
	.st1{fill:#4C70B7;}
</style>
<g>
	<path class="st0" d="M425.95,402.28c0-6.36-0.17-12.72,0.07-19.07c0.12-3.24-0.49-4.02-3.81-2.92
		c-23.21,7.64-46.48,15.11-69.72,22.65c-8.19,2.66-10.58,1.87-15.39-5.22c-6.65-9.8-13.29-19.61-19.94-29.41
		c-0.56-0.83-1.09-1.67-1.68-2.48c-1.27-1.76-1.56-3.52,0.43-4.86c2.06-1.4,3.52-0.15,4.67,1.53c5.34,7.83,10.66,15.67,15.98,23.51
		c2.1,3.1,4.27,6.15,6.24,9.33c1.63,2.65,3.52,3.29,6.58,2.29c25.59-8.4,51.23-16.66,76.85-24.97c9.13-2.96,18.26-5.91,27.38-8.92
		c4.27-1.41,4.76-2.81,2.27-6.5c-9.07-13.43-18.2-26.83-27.23-40.29c-1.12-1.67-2.46-2.66-4.33-3.26
		c-37.72-12.23-75.43-24.49-113.12-36.79c-1.68-0.55-3.11-0.38-4.69,0.14c-31.77,10.35-63.54,20.68-95.32,31.01
		c-0.59,0.19-1.21,0.33-1.79,0.56c-2.14,0.86-4.17,0.76-4.95-1.65c-0.83-2.53,1.12-3.45,3.18-4.11
		c30.36-9.87,60.7-19.77,91.07-29.61c5.52-1.79,5.57-1.7,2.22-6.62c-7.36-10.83-14.83-21.58-22.05-32.5
		c-1.97-2.99-4.01-3.38-7.23-2.33c-34.48,11.28-69,22.45-103.51,33.66c-4.48,1.46-4.96,2.81-2.35,6.69
		c7.87,11.69,15.81,23.33,23.63,35.05c1.12,1.68,2.5,2.63,4.35,3.22c37.49,12.09,74.98,24.2,112.46,36.37
		c2.16,0.7,4.09,0.52,6.19-0.17c31.9-10.37,63.81-20.69,95.72-31.03c0.71-0.23,1.44-0.42,2.13-0.7c1.96-0.79,3.6-0.3,4.32,1.62
		c0.81,2.19-0.43,3.53-2.51,4.21c-1.66,0.54-3.3,1.13-4.96,1.66c-30.73,9.92-61.45,19.86-92.2,29.71c-2.62,0.84-4.54,2.12-6.11,4.47
		c-9.43,14.09-19,28.09-28.54,42.11c-3.95,5.8-6.94,6.81-13.71,4.62c-34.52-11.18-69.03-22.38-103.54-33.57
		c-8.83-2.86-10.75-8.52-5.53-16.28c6.54-9.73,13.08-19.45,19.64-29.16c0.77-1.13,1.53-2.3,2.48-3.27c1.1-1.11,2.52-1.08,3.75-0.18
		c1.1,0.8,1.51,2.01,1,3.33c-0.31,0.8-0.81,1.54-1.3,2.26c-6.99,10.33-13.99,20.64-20.99,30.97c-2.33,3.44-1.85,5.01,2.15,6.31
		c27.03,8.79,54.08,17.53,81.12,26.3c7.83,2.54,15.69,4.99,23.46,7.69c2.88,1,4.67,0.31,6.32-2.14
		c9.11-13.56,18.26-27.09,27.51-40.55c1.54-2.24,0.89-2.69-1.36-3.42c-37.14-11.99-74.25-24.08-111.38-36.09
		c-1.89-0.61-3.26-1.48-4.37-3.15c-8.24-12.34-16.58-24.61-24.87-36.92c-4.73-7.03-2.69-13.12,5.27-15.7
		c34.99-11.35,69.98-22.68,104.97-34.01c5.81-1.88,9-0.77,12.47,4.32c8.51,12.46,17.03,24.91,25.45,37.43
		c1.39,2.07,2.99,3.42,5.41,4.2c36.9,11.9,73.78,23.87,110.64,35.9c2.11,0.69,3.27,0.48,4.56-1.46
		c7.58-11.43,15.32-22.75,22.97-34.14c2.46-3.65,1.94-5.1-2.33-6.49c-34.63-11.25-69.27-22.45-103.88-33.75
		c-3.09-1.01-5.05-0.53-6.92,2.3c-6.12,9.26-12.48,18.35-18.72,27.53c-1.27,1.87-2.71,3.76-5.09,2.1c-2.32-1.62-1.18-3.68,0.1-5.55
		c6.48-9.46,12.92-18.95,19.41-28.41c3.2-4.66,6.56-5.83,11.92-4.09c30.84,9.98,61.67,19.99,92.51,29.99
		c4.39,1.42,8.8,2.77,13.17,4.25c7.32,2.47,9.48,8.63,5.21,15.01c-7.7,11.5-15.44,22.98-23.28,34.38c-1.37,2-1.62,3.38-0.12,5.54
		c8.8,12.71,17.39,25.57,26.1,38.35c5.45,7.99,3.52,13.71-5.79,16.76c-6.4,2.1-12.76,4.33-19.23,6.16c-2.86,0.81-3.55,2.19-3.51,5
		c0.15,13.46,0.08,26.93,0.06,40.4c-0.01,8.52-3.59,13.65-11.72,16.1c-35.45,10.67-70.94,21.24-106.41,31.84
		c-3.33,0.99-6.63,0.92-9.95-0.08c-35.24-10.54-70.49-21.06-105.72-31.63c-8.52-2.56-12.11-7.58-12.12-16.58
		c-0.01-9.98,0.01-19.95-0.02-29.93c-0.01-2.23,0.04-4.68,2.86-4.79c3.14-0.12,3.18,2.46,3.18,4.82c-0.02,10.1-0.02,20.2,0,30.3
		c0.01,5.72,2.33,8.68,7.82,10.32c34.87,10.44,69.74,20.88,104.59,31.38c3.13,0.94,6.05,0.92,9.16-0.02
		c34.38-10.33,68.79-20.61,103.18-30.9c7.35-2.2,9.14-4.63,9.14-12.4C425.95,414,425.95,408.14,425.95,402.28z"/>
	<path class="st1" d="M219.35,311.64c29.27-9.52,58.43-19,87.58-28.5c1.5-0.49,2.92-0.45,4.4,0.03
		c28.68,9.35,57.37,18.7,86.05,28.05c0.43,0.14,0.84,0.35,2.17,0.9c-3.94,1.27-7.07,2.27-10.19,3.29
		c-25.38,8.23-50.76,16.44-76.13,24.7c-2.4,0.78-4.59,1.28-7.21,0.42c-28.31-9.28-56.67-18.43-85.02-27.61
		C220.44,312.73,219.73,312.78,219.35,311.64z"/>
	<path class="st1" d="M307.23,155.85c-3.27-0.9-5.77-2.59-5.7-6.37c0.07-3.58,2.47-5.21,5.61-6.04c2.16,0.05,4.32,0.09,6.48,0.14
		c11.23,0.03,22.46,0.05,33.69,0.11c3.31,0.02,5.51,1.64,6.07,4.92c0.52,3.03-0.63,5.34-3.72,6.41c-0.57,0.2-1.12,0.47-1.68,0.71
		c-2.5,0-5,0.01-7.5,0.01c-8.95,0.01-17.91,0.03-26.86,0.04C311.49,155.8,309.36,155.83,307.23,155.85z"/>
	<path class="st0" d="M340.49,155.74c2.5,0,5-0.01,7.5-0.01c0.66,1.47,1.38,2.92,1.96,4.42c3.88,10.03-2.32,18.27-13.39,17.8
		c-12.67-0.53-25.31-10.06-29.33-22.1c2.13-0.02,4.26-0.05,6.39-0.07c5.24,10.43,15.1,16.6,25.22,15.79
		c5.38-0.43,7.42-3.61,5.58-8.7C343.49,160.29,342.06,157.97,340.49,155.74z"/>
	<path class="st0" d="M313.63,143.57c-2.16-0.05-4.32-0.09-6.48-0.14c4.59-14.47,22.26-25.16,35.44-21.42
		c5.96,1.69,9.14,6.37,8.45,12.31c-0.23,2-1.1,3.43-3.22,3.33c-1.89-0.09-2.68-1.42-2.84-3.3c-0.46-5.56-2.92-7.69-8.88-7.01
		C325.65,128.55,318.08,133.97,313.63,143.57z"/>
	<path class="st0" d="M324.64,212.73c2.98,0,5.97-0.05,8.95,0.02c1.88,0.05,3.61,0.73,3.71,2.87c0.11,2.29-1.54,3.26-3.63,3.38
		c-6.22,0.36-12.43-0.02-18.62-0.54c-1.66-0.14-2.85-1.2-2.84-2.91c0.01-1.87,1.19-2.97,3.1-3c3.11-0.05,6.22-0.01,9.33-0.01
		C324.64,212.6,324.64,212.66,324.64,212.73z"/>
	<path class="st0" d="M390.7,186.18c-1.5,6.35-4.82,12.34-10.18,17.1c-1.25,1.11-2.85,0.89-4.02-0.38
		c-1.06-1.15-1.18-2.62-0.13-3.73c4.08-4.32,7.24-9.1,8.66-14.96c0.34-1.39,1.7-2.18,3.25-1.88
		C389.96,182.66,390.82,183.78,390.7,186.18z"/>
	<path class="st0" d="M351.32,216.98c-2.2,0.17-3.59-0.26-4.01-2.03c-0.44-1.86,0.42-3.32,2.2-3.73c5.7-1.3,11.26-2.96,16.65-5.23
		c1.69-0.71,3.23,0.05,3.94,1.82c0.68,1.7-0.21,2.98-1.65,3.68C362.84,214.21,356.89,215.9,351.32,216.98z"/>
	<path class="st0" d="M298.56,212.64c2.49-0.18,4.1,0.53,4.33,2.6c0.23,2.08-1.16,3.07-3.17,3.36c-5.29,0.77-10.52,1.81-15.55,3.69
		c-1.9,0.71-3.55,0.19-4.21-1.83c-0.6-1.85,0.42-3.07,2.12-3.78C287.52,214.41,293.26,213.41,298.56,212.64z"/>
	<path class="st0" d="M389.51,166.33c-0.12,1.19-0.58,2.34-1.97,2.74c-1.44,0.42-2.93,0.19-3.56-1.26c-2.23-5.12-5.21-9.59-9.75-13
		c-1.2-0.9-1.16-2.5-0.33-3.76c0.74-1.12,1.93-1.56,3.29-1.19C380.94,150.87,389.52,162.25,389.51,166.33z"/>
	<path class="st0" d="M270.42,248.28c0.1,1.94,0.3,3.69,0.26,5.42c-0.04,1.83-1,3.16-2.94,3.2c-1.7,0.04-2.69-1.01-3.01-2.73
		c-0.7-3.71-0.86-7.4-0.13-11.12c0.36-1.85,1.31-3,3.29-2.79c1.94,0.2,2.77,1.54,2.76,3.37
		C270.64,245.25,270.49,246.86,270.42,248.28z"/>
	<path class="st0" d="M279.66,274.03c-0.26,1.49-0.66,2.5-1.71,3.12c-1.1,0.65-2.28,0.59-3.08-0.29c-2.43-2.65-4.44-5.61-5.55-9.06
		c-0.36-1.12,0.18-2.18,1.19-2.9c1-0.71,2.23-1.02,3.08-0.14C276.26,267.52,277.81,271.03,279.66,274.03z"/>
</g>
</svg>
